Coordinates
version=1
nRows=49
nColumns=12
inDegrees=yes

Units are S.I. units (second, meters, Newtons, ...)
Angles are in degrees

endheader
time	SC_y	SC_z	SC_x	AC_y	AC_z	AC_x	GH_y	GH_z	GH_yy	EL_x	PS_y
       0.0              -53.36          25.77          38.94          50.34         -3.825          17.78         -57.39          34.45         -7.111          51.26          50.59
   0.04097              -53.36          25.76          38.94          50.34         -3.825          17.78         -57.37          34.45         -7.087          51.26           50.6
   0.08194              -53.36          25.76          38.94          50.35         -3.826          17.78         -57.35          34.44         -7.061          51.27          50.62
    0.1229              -53.36          25.76          38.95          50.35         -3.827          17.78         -57.32          34.44         -7.034          51.27          50.64
    0.1639              -53.36          25.76          38.95          50.35         -3.828          17.77          -57.3          34.43         -7.005          51.27          50.66
    0.2048              -53.36          25.75          38.95          50.35         -3.829          17.77         -57.27          34.43         -6.974          51.27          50.68
    0.2458              -53.36          25.75          38.95          50.36          -3.83          17.77         -57.25          34.42         -6.941          51.28           50.7
    0.2868              -53.36          25.75          38.95          50.36         -3.831          17.76         -57.22          34.42         -6.905          51.28          50.72
    0.3277              -53.36          25.74          38.96          50.36         -3.832          17.76         -57.18          34.41         -6.868          51.29          50.74
    0.3687              -53.36          25.74          38.96          50.37         -3.833          17.76         -57.15           34.4         -6.827          51.29          50.77
    0.4097              -53.36          25.73          38.96          50.37         -3.834          17.75         -57.11          34.39         -6.783          51.29           50.8
    0.4507              -53.36          25.73          38.97          50.38         -3.835          17.75         -57.08          34.39         -6.736           51.3          50.83
    0.4916              -53.36          25.72          38.97          50.38         -3.837          17.74         -57.03          34.38         -6.685           51.3          50.86
    0.5326              -53.36          25.72          38.97          50.39         -3.838          17.74         -56.99          34.37         -6.631          51.31          50.89
    0.5736              -53.36          25.71          38.98          50.39          -3.84          17.73         -56.94          34.36         -6.571          51.31          50.93
    0.6145              -53.36           25.7          38.98           50.4         -3.842          17.72         -56.88          34.35         -6.507          51.32          50.97
    0.6555              -53.36           25.7          38.99           50.4         -3.844          17.72         -56.83          34.33         -6.437          51.33          51.02
    0.6965              -53.36          25.69          38.99          50.41         -3.846          17.71         -56.76          34.32         -6.361          51.33          51.07
    0.7374              -53.36          25.68           39.0          50.42         -3.848           17.7         -56.69          34.31         -6.278          51.34          51.12
    0.7784              -53.36          25.67          39.01          50.43         -3.851          17.69         -56.62          34.29         -6.187          51.35          51.18
    0.8194              -53.36          25.66          39.01          50.44         -3.854          17.68         -56.53          34.27         -6.088          51.36          51.24
    0.8603              -53.36          25.65          39.02          50.45         -3.857          17.67         -56.44          34.26         -5.978          51.37          51.31
    0.9013              -53.36          25.64          39.03          50.46          -3.86          17.66         -56.34          34.23         -5.856          51.38          51.39
    0.9423              -53.36          25.62          39.04          50.47         -3.864          17.65         -56.23          34.21         -5.722           51.4          51.47
    0.9832              -53.36          25.61          39.05          50.48         -3.868          17.63          -56.1          34.19         -5.572          51.41          51.57
     1.024              -53.36          25.59          39.06           50.5         -3.873          17.61         -55.97          34.16         -5.405          51.43          51.67
     1.065              -53.36          25.57          39.08          50.52         -3.878           17.6         -55.81          34.12         -5.218          51.45          51.79
     1.106              -53.36          25.55          39.09          50.53         -3.884          17.58         -55.63          34.09         -5.008          51.47          51.93
     1.147              -53.36          25.52          39.11          50.56          -3.89          17.55         -55.44          34.05         -4.771          51.49          52.08
     1.188              -53.36           25.5          39.13          50.58         -3.898          17.53         -55.21           34.0         -4.501          51.52          52.25
     1.229              -53.36          25.46          39.15          50.61         -3.907          17.49         -54.96          33.95         -4.193          51.55          52.45
      1.27              -53.36          25.43          39.18          50.64         -3.917          17.46         -54.66          33.89          -3.84          51.58          52.67
     1.311              -53.36          25.39          39.21          50.68         -3.928          17.42         -54.32          33.82         -3.432          51.62          52.93
     1.352              -53.36          25.34          39.24          50.72         -3.941          17.37         -53.93          33.73         -2.958          51.67          53.23
     1.393              -53.36          25.28          39.28          50.77         -3.957          17.32         -53.46          33.64         -2.403          51.72          53.59
     1.434              -53.36          25.21          39.33          50.83         -3.975          17.25         -52.92          33.53          -1.75          51.79           54.0
     1.475              -53.37          25.13          39.39          50.91         -3.997          17.17         -52.27          33.39        -0.9728          51.86           54.5
     1.516              -53.37          25.03          39.46          50.99         -4.023          17.08          -51.5          33.23       -0.04151          51.95          55.09
     1.557              -53.37          24.92          39.54           51.1         -4.055          16.97         -50.56          33.04          1.085          52.06          55.81
     1.598              -53.37          24.77          39.64          51.22         -4.093          16.83         -49.41           32.8          2.461           52.2          56.69
     1.639              -53.37           24.6          39.76          51.38         -4.141          16.66         -47.99           32.5           4.16          52.37          57.77
      1.68              -53.37          24.38          39.92          51.57         -4.201          16.45         -46.23          32.14          6.278          52.57          59.12
     1.721              -53.37           24.1          40.11          51.82         -4.275          16.19          -44.0          31.68          8.947          52.83          60.82
     1.762              -53.37          23.75          40.36          52.13         -4.371          15.85         -41.18          31.09          12.34          53.17          62.98
     1.803              -53.37          23.29          40.68          52.53         -4.492          15.42         -37.56          30.34          16.68          53.59          65.74
     1.844              -53.37          22.72          41.09          53.04         -4.649          14.87         -32.92          29.38          22.25          54.14          69.29
     1.885              -53.37          21.98          41.61           53.7         -4.849          14.16         -26.98          28.15          29.37          54.83          73.83
     1.926              -53.37          21.05          42.26          54.52           -5.1          13.27         -19.53          26.61          38.32          55.71          79.53
     1.966              -53.38          19.91          43.06          55.53         -5.406          12.19         -10.44          24.72          49.22          56.78          86.48
